<?xml version="1.0" encoding="UTF-8" standalone="no"?>
<svg
   xmlns:dc="http://purl.org/dc/elements/1.1/"
   xmlns:cc="http://creativecommons.org/ns#"
   xmlns:rdf="http://www.w3.org/1999/02/22-rdf-syntax-ns#"
   xmlns:svg="http://www.w3.org/2000/svg"
   xmlns="http://www.w3.org/2000/svg"
   xmlns:sodipodi="http://sodipodi.sourceforge.net/DTD/sodipodi-0.dtd"
   xmlns:inkscape="http://www.inkscape.org/namespaces/inkscape"
   version="1.1"
   id="svg2"
   xml:space="preserve"
   width="888"
   height="312"
   viewBox="0 0 888 312"
   sodipodi:docname="CSP Logo Text right of logo.ai"><metadata
     id="metadata8"><rdf:RDF><cc:Work
         rdf:about=""><dc:format>image/svg+xml</dc:format><dc:type
           rdf:resource="http://purl.org/dc/dcmitype/StillImage" /></cc:Work></rdf:RDF></metadata><defs
     id="defs6"><clipPath
       clipPathUnits="userSpaceOnUse"
       id="clipPath18"><path
         d="M 0,234 H 666 V 0 H 0 Z"
         id="path16" /></clipPath></defs><sodipodi:namedview
     pagecolor="#ffffff"
     bordercolor="#666666"
     borderopacity="1"
     objecttolerance="10"
     gridtolerance="10"
     guidetolerance="10"
     inkscape:pageopacity="0"
     inkscape:pageshadow="2"
     inkscape:window-width="640"
     inkscape:window-height="480"
     id="namedview4" /><g
     id="g10"
     inkscape:groupmode="layer"
     inkscape:label="CSP Logo Text right of logo"
     transform="matrix(1.3333333,0,0,-1.3333333,0,312)"><g
       id="g12"><g
         id="g14"
         clip-path="url(#clipPath18)"><g
           id="g20"
           transform="translate(255.147,84.5645)"><path
             d="m 0,0 c -0.16,-4.355 -1.662,-11.969 -9.549,-11.969 -7.59,0 -10.678,6.172 -10.678,25.789 0,17.889 2.711,25.553 10.602,25.553 8.584,0 9.465,-7.968 9.863,-12.564 l -5.199,-0.811 c -0.383,4.208 -0.68,8.264 -4.435,8.264 -3,0 -3.827,-2.789 -4.272,-5.043 -0.91,-4.418 -0.91,-10.133 -0.91,-15.176 0,-1.953 0,-11.57 1.049,-16.072 0.756,-3.241 1.879,-4.889 4.377,-4.889 4.127,0 4.263,5.395 4.263,7.883 z"
             style="fill:#a6192e;fill-opacity:1;fill-rule:nonzero;stroke:none"
             id="path22" /></g><g
           id="g24"
           transform="translate(268.8228,92.5879)"><path
             d="M 0,0 -1.727,12.555 C -2.539,18.73 -2.711,20.604 -3.002,24.062 -3.219,21.126 -3.83,15.723 -4.197,12.492 L -5.859,0 Z M 2.865,-19.309 0.541,-4.5 h -6.853 l -2.251,-14.809 h -4.58 l 7.807,50.126 h 5.193 l 8.047,-50.126 z"
             style="fill:#a6192e;fill-opacity:1;fill-rule:nonzero;stroke:none"
             id="path26" /></g><g
           id="g28"
           transform="translate(295.8833,73.2793)"><path
             d="m 0,0 -7.791,25.934 c -0.543,1.648 -2.281,7.587 -3.02,11.052 0.063,-1.736 0.372,-9.549 0.372,-11.127 V 0 h -4.594 v 50.126 h 4.515 l 7.666,-26.661 c 0.528,-1.965 2.038,-6.787 2.94,-10.981 -0.221,7.133 -0.309,9.463 -0.309,10.813 V 50.126 H 4.354 V 0 Z"
             style="fill:#a6192e;fill-opacity:1;fill-rule:nonzero;stroke:none"
             id="path30" /></g><g
           id="g32"
           transform="translate(317.5415,92.5879)"><path
             d="M 0,0 -1.736,12.555 C -2.568,18.73 -2.711,20.604 -3.01,24.062 -3.225,21.126 -3.832,15.723 -4.217,12.492 L -5.871,0 Z M 2.85,-19.309 0.535,-4.5 h -6.861 l -2.242,-14.809 h -4.577 l 7.811,50.126 h 5.162 l 8.053,-50.126 z"
             style="fill:#a6192e;fill-opacity:1;fill-rule:nonzero;stroke:none"
             id="path34" /></g><g
           id="g36"
           transform="translate(334.8203,78.0098)"><path
             d="m 0,0 h 2.324 c 3.547,0 4.905,2.727 5.201,3.379 2.098,4.375 2.192,14.517 2.192,16.996 0,4.203 -0.305,12.178 -2.254,16.315 -1.893,3.985 -3.996,3.985 -5.641,3.985 H 0 Z m -5.251,45.396 h 6.54 c 3.082,0 8.492,0 11.35,-7.515 1.502,-3.904 2.554,-8.791 2.554,-17.658 0,-4.516 -0.367,-14.805 -3.601,-20.291 C 8.797,-4.73 3.846,-4.73 1.963,-4.73 h -7.214 z"
             style="fill:#a6192e;fill-opacity:1;fill-rule:nonzero;stroke:none"
             id="path38" /></g><path
           d="m 356.48,123.405 h 5.342 V 73.279 h -5.342 z"
           style="fill:#a6192e;fill-opacity:1;fill-rule:nonzero;stroke:none"
           id="path40" /><g
           id="g42"
           transform="translate(379.0391,92.5879)"><path
             d="m 0,0 -1.732,12.555 c -0.834,6.175 -0.979,8.049 -1.286,11.507 -0.228,-2.936 -0.816,-8.339 -1.214,-11.57 L -5.857,0 Z M 2.844,-19.309 0.518,-4.5 h -6.85 l -2.242,-14.809 h -4.582 l 7.802,50.126 h 5.2 l 8.025,-50.126 z"
             style="fill:#a6192e;fill-opacity:1;fill-rule:nonzero;stroke:none"
             id="path44" /></g><g
           id="g46"
           transform="translate(406.084,73.2793)"><path
             d="m 0,0 -7.809,25.934 c -0.531,1.648 -2.254,7.587 -2.998,11.052 0.086,-1.736 0.368,-9.549 0.368,-11.127 V 0 h -4.586 v 50.126 h 4.505 l 7.676,-26.661 c 0.516,-1.965 2.024,-6.787 2.93,-10.981 -0.221,7.133 -0.315,9.463 -0.315,10.813 v 26.829 h 4.61 L 4.381,0 Z"
             style="fill:#a6192e;fill-opacity:1;fill-rule:nonzero;stroke:none"
             id="path48" /></g><g
           id="g50"
           transform="translate(426.7617,85.5293)"><path
             d="m 0,0 c 0.082,-4.061 1.658,-8.109 5.262,-8.109 4.744,0 5.261,6.072 5.261,9.009 0,6.836 -3.605,9.397 -5.408,10.678 -3.982,2.861 -9.103,6.457 -9.103,14.965 0,7.138 3.533,11.865 9.627,11.865 7.363,0 9.175,-6.686 9.564,-10.891 L 10.234,26.678 C 9.855,29.398 9.242,33.6 5.41,33.6 c -2.332,0 -4.135,-1.574 -4.135,-5.871 0,-3.827 1.58,-7.143 4.661,-9.381 4.511,-3.301 6.175,-4.518 7.9,-7.68 0.898,-1.645 2.174,-4.516 2.174,-8.861 0,-2.557 -0.457,-6.983 -2.615,-10.536 -2.344,-3.748 -6.409,-4.205 -8.28,-4.205 -7.209,0 -9.779,5.868 -10.086,12.184 z"
             style="fill:#2c2a29;fill-opacity:1;fill-rule:nonzero;stroke:none"
             id="path52" /></g><g
           id="g54"
           transform="translate(462.3125,73.2793)"><path
             d="m 0,0 -8.186,24.277 -1.587,-3.84 V 0 h -5.247 v 50.126 h 5.247 V 27.883 l 8.957,22.243 H 4.217 L -4.65,29.02 5.482,0 Z"
             style="fill:#2c2a29;fill-opacity:1;fill-rule:nonzero;stroke:none"
             id="path56" /></g><path
           d="m 470.371,123.405 h 5.326 V 73.279 h -5.326 z"
           style="fill:#2c2a29;fill-opacity:1;fill-rule:nonzero;stroke:none"
           id="path58" /><g
           id="g60"
           transform="translate(497.7344,100.1152)"><path
             d="m 0,0 h 1.494 c 2.861,0 3.686,0.676 3.686,8.639 0,8.276 -1.582,8.276 -3.686,8.276 H 0 Z M -7.521,-26.836 V 23.29 H 0.9 c 3.155,0 6.164,0 8.645,-2.854 2.25,-2.624 3.529,-6.453 3.529,-12.166 0,-11.051 -3.838,-15.12 -10.748,-15.12 H 0 v -19.986 z"
             style="fill:#2c2a29;fill-opacity:1;fill-rule:nonzero;stroke:none"
             id="path62" /></g><g
           id="g64"
           transform="translate(522.623,93.2012)"><path
             d="m 0,0 -1.133,8.934 c -0.299,2.414 -1.349,12.258 -1.508,13.684 -0.066,-1.426 -0.154,-2.705 -0.371,-5.03 -0.461,-4.815 -0.529,-5.342 -0.826,-8.717 L -4.818,0 Z M 2.381,-19.922 0.682,-6.086 H -5.34 l -1.594,-13.836 h -6.675 l 7.736,50.126 H 1.5 l 7.959,-50.126 z"
             style="fill:#2c2a29;fill-opacity:1;fill-rule:nonzero;stroke:none"
             id="path66" /></g><g
           id="g68"
           transform="translate(536.666,73.2793)"><path
             d="m 0,0 v 43.751 h -5.559 v 6.375 H 12.994 V 43.751 H 7.523 V 0 Z"
             style="fill:#2c2a29;fill-opacity:1;fill-rule:nonzero;stroke:none"
             id="path70" /></g><g
           id="g72"
           transform="translate(559.6016,101.3887)"><path
             d="m 0,0 h 1.195 c 2.782,0 3.612,1.367 3.612,8.043 0,7.599 -1.655,7.599 -3.612,7.599 H 0 Z M 6.68,-28.109 1.789,-6.535 H 0 v -21.574 h -7.527 v 50.126 h 8.722 c 3.076,0 6.305,-0.442 8.653,-3.526 1.57,-2.102 2.855,-4.952 2.855,-10.901 0,-9.539 -2.937,-11.344 -4.599,-12.324 l 6.308,-23.375 z"
             style="fill:#2c2a29;fill-opacity:1;fill-rule:nonzero;stroke:none"
             id="path74" /></g><g
           id="g76"
           transform="translate(585.0723,81.9199)"><path
             d="m 0,0 c 0.312,-1.418 0.84,-3.004 2.707,-3.004 1.883,0 2.416,1.506 2.711,3.004 0.689,3.396 0.689,14.215 0.689,15.109 0,7.137 -0.095,10.301 -0.38,15.641 C 5.561,34.421 4.66,35.857 2.707,35.857 0.84,35.857 0.312,34.421 0,32.851 -0.598,29.691 -0.598,16.687 -0.598,16.387 -0.598,12.477 -0.598,3.396 0,0 m 2.707,42.096 c 7.986,0 11.428,-6.322 11.428,-25.709 0,-19.391 -3.442,-25.627 -11.428,-25.627 -10.143,0 -11.346,10.896 -11.346,25.627 0,14.222 0.969,25.709 11.346,25.709"
             style="fill:#2c2a29;fill-opacity:1;fill-rule:nonzero;stroke:none"
             id="path78" /></g><g
           id="g80"
           transform="translate(604.6328,73.2793)"><path
             d="M 0,0 V 50.126 H 7.516 V 6.383 h 9.4 V 0 Z"
             style="fill:#2c2a29;fill-opacity:1;fill-rule:nonzero;stroke:none"
             id="path82" /></g><g
           id="g84"
           transform="translate(171.7407,80.9395)"><path
             d="m 0,0 c 3.873,0.953 38.424,10.625 38.424,10.625 0,0 -6.645,3.74 -9.535,6.291 -2.869,2.529 -2.516,4.967 0.615,9.178 3.125,4.218 16.107,19.003 16.107,19.003 0,0 -19.591,1.861 -24.757,2.789 -5.168,0.931 -7.106,2.453 -6.719,6.277 0.357,3.826 2.621,11.099 2.621,11.099 0,0 -31.791,-16.633 -35.258,-18.604 -3.463,-1.961 -5.574,-0.82 -4.773,3.475 l 7.269,45.494 c 0,0 -5.935,-4.788 -9.359,-6.52 -3.424,-1.751 -5.549,-0.526 -8.324,3.927 -2.676,4.335 -14.051,27.202 -14.743,28.593 h -0.033 c -0.689,-1.391 -12.055,-24.258 -14.74,-28.593 -2.754,-4.453 -4.883,-5.678 -8.316,-3.927 -3.422,1.732 -9.354,6.52 -9.354,6.52 l 7.277,-45.494 c 0.791,-4.295 -1.308,-5.436 -4.791,-3.475 -3.463,1.971 -35.256,18.604 -35.256,18.604 0,0 2.262,-7.273 2.618,-11.099 0.386,-3.824 -1.539,-5.346 -6.709,-6.277 -5.166,-0.928 -24.76,-2.789 -24.76,-2.789 0,0 12.98,-14.785 16.111,-19.003 3.115,-4.211 3.483,-6.649 0.596,-9.178 -2.889,-2.551 -9.527,-6.291 -9.527,-6.291 0,0 34.552,-9.672 38.425,-10.625 3.875,-0.934 5.155,-4.139 1.104,-5.795 l -15.629,-3.43 c 0,0 3.853,-2.963 5.455,-4.83 1.6,-1.851 1.154,-3.343 -1.195,-5.746 -2.35,-2.388 -11.903,-10.574 -11.903,-10.574 0,0 12.237,-2.922 15.416,-3.969 3.204,-1.06 4.25,-2.191 3.68,-4.572 -0.543,-2.397 -2.631,-6.791 -2.631,-6.791 0,0 35.268,13.258 37.635,14.182 l 0.33,0.107 c 3.873,1.441 6.609,0.719 5.887,-3.945 l -2.401,-19.912 c 0,0 7.85,1.726 12.694,1.904 4.863,-0.178 12.72,-1.904 12.72,-1.904 l -2.435,19.912 c -0.707,4.664 2.025,5.386 5.898,3.945 l 0.325,-0.107 c 2.38,-0.924 37.644,-14.182 37.644,-14.182 0,0 -2.076,4.394 -2.627,6.791 -0.576,2.381 0.496,3.512 3.672,4.572 3.193,1.047 15.412,3.969 15.412,3.969 0,0 -9.539,8.186 -11.885,10.574 -2.355,2.403 -2.798,3.895 -1.199,5.746 1.606,1.867 5.455,4.83 5.455,4.83 L -1.1,-5.795 C -5.135,-4.139 -3.875,-0.934 0,0"
             style="fill:#a6192e;fill-opacity:1;fill-rule:nonzero;stroke:none"
             id="path86" /></g><g
           id="g88"
           transform="translate(161.1841,85.3555)"><path
             d="M 0,0 H -25.324 V -25.324 H -50.652 V 0 h -25.323 v 25.322 h 25.323 v 25.326 h 25.328 V 25.322 l 25.324,0 z"
             style="fill:#ffffff;fill-opacity:1;fill-rule:nonzero;stroke:none"
             id="path90" /></g><g
           id="g92"
           transform="translate(625.2539,121.8369)"><path
             d="M 0,0 H -2.23 V 1.568 H 4.123 V 0 H 1.875 V -6.691 H 0 Z"
             style="fill:#2c2a29;fill-opacity:1;fill-rule:nonzero;stroke:none"
             id="path94" /></g><g
           id="g96"
           transform="translate(637.3164,118.3174)"><path
             d="M 0,0 C -0.039,0.984 -0.072,2.184 -0.072,3.392 H -0.107 C -0.369,2.336 -0.715,1.153 -1.018,0.187 L -2.041,-3.041 H -3.5 L -4.375,0.16 C -4.652,1.129 -4.932,2.316 -5.133,3.392 H -5.152 C -5.187,2.267 -5.23,0.99 -5.291,-0.034 l -0.164,-3.138 h -1.727 l 0.536,8.26 h 2.478 l 0.814,-2.752 c 0.258,-0.958 0.526,-1.983 0.698,-2.959 h 0.029 c 0.244,0.947 0.533,2.053 0.799,2.973 l 0.873,2.738 h 2.451 l 0.449,-8.26 h -1.82 z"
             style="fill:#2c2a29;fill-opacity:1;fill-rule:nonzero;stroke:none"
             id="path98" /></g></g></g></g></svg>
