<?xml version="1.0" encoding="UTF-8" standalone="no"?>
<svg
   xmlns:dc="http://purl.org/dc/elements/1.1/"
   xmlns:cc="http://creativecommons.org/ns#"
   xmlns:rdf="http://www.w3.org/1999/02/22-rdf-syntax-ns#"
   xmlns:svg="http://www.w3.org/2000/svg"
   xmlns="http://www.w3.org/2000/svg"
   xmlns:sodipodi="http://sodipodi.sourceforge.net/DTD/sodipodi-0.dtd"
   xmlns:inkscape="http://www.inkscape.org/namespaces/inkscape"
   version="1.1"
   id="svg2"
   xml:space="preserve"
   width="888"
   height="600"
   viewBox="0 0 888 600"
   sodipodi:docname="CSP Logo Text below logo COLOUR.ai"><metadata
     id="metadata8"><rdf:RDF><cc:Work
         rdf:about=""><dc:format>image/svg+xml</dc:format><dc:type
           rdf:resource="http://purl.org/dc/dcmitype/StillImage" /></cc:Work></rdf:RDF></metadata><defs
     id="defs6"><clipPath
       clipPathUnits="userSpaceOnUse"
       id="clipPath18"><path
         d="M 0,450 H 666 V 0 H 0 Z"
         id="path16" /></clipPath></defs><sodipodi:namedview
     pagecolor="#ffffff"
     bordercolor="#666666"
     borderopacity="1"
     objecttolerance="10"
     gridtolerance="10"
     guidetolerance="10"
     inkscape:pageopacity="0"
     inkscape:pageshadow="2"
     inkscape:window-width="640"
     inkscape:window-height="480"
     id="namedview4" /><g
     id="g10"
     inkscape:groupmode="layer"
     inkscape:label="CSP Logo Text below logo COLOUR"
     transform="matrix(1.3333333,0,0,-1.3333333,0,600)"><g
       id="g12"><g
         id="g14"
         clip-path="url(#clipPath18)"><g
           id="g20"
           transform="translate(71.2813,54.8613)"><path
             d="m 0,0 c -0.218,-6.225 -2.356,-17.051 -13.628,-17.051 -10.836,0 -15.229,8.793 -15.229,36.793 0,25.531 3.863,36.473 15.128,36.473 12.227,0 13.511,-11.371 14.05,-17.916 l -7.407,-1.178 c -0.533,6.006 -0.962,11.801 -6.32,11.801 -4.288,0 -5.478,-3.967 -6.12,-7.197 -1.287,-6.317 -1.287,-14.479 -1.287,-21.663 0,-2.785 0,-16.515 1.504,-22.953 1.071,-4.615 2.677,-6.982 6.222,-6.982 5.9,0 6.112,7.725 6.112,11.271 z"
             style="fill:#a6192e;fill-opacity:1;fill-rule:nonzero;stroke:none"
             id="path22" /></g><g
           id="g24"
           transform="translate(90.7959,66.3398)"><path
             d="M 0,0 -2.458,17.916 C -3.629,26.717 -3.847,29.4 -4.278,34.33 -4.605,30.145 -5.46,22.424 -5.994,17.812 L -8.354,0 Z M 4.089,-27.57 0.761,-6.43 H -9 l -3.229,-21.14 h -6.537 l 11.164,71.549 h 7.4 L 11.275,-27.57 Z"
             style="fill:#a6192e;fill-opacity:1;fill-rule:nonzero;stroke:none"
             id="path26" /></g><g
           id="g28"
           transform="translate(129.4287,38.7695)"><path
             d="m 0,0 -11.154,37.006 c -0.751,2.369 -3.226,10.844 -4.288,15.779 0.102,-2.471 0.528,-13.623 0.528,-15.885 V 0 h -6.541 v 71.549 h 6.433 L -4.077,33.479 C -3.329,30.689 -1.181,23.818 0.109,17.811 -0.216,28.002 -0.32,31.326 -0.32,33.256 V 71.549 H 6.222 L 6.222,0 Z"
             style="fill:#a6192e;fill-opacity:1;fill-rule:nonzero;stroke:none"
             id="path30" /></g><g
           id="g32"
           transform="translate(160.3213,66.3398)"><path
             d="M 0,0 -2.46,17.916 C -3.643,26.717 -3.852,29.4 -4.285,34.33 -4.607,30.145 -5.465,22.424 -5.998,17.812 L -8.362,0 Z M 4.078,-27.57 0.751,-6.43 h -9.752 l -3.23,-21.14 H -18.77 L -7.611,43.979 H -0.21 L 11.268,-27.57 Z"
             style="fill:#a6192e;fill-opacity:1;fill-rule:nonzero;stroke:none"
             id="path34" /></g><g
           id="g36"
           transform="translate(185.002,45.5332)"><path
             d="m 0,0 h 3.325 c 5.041,0 6.976,3.863 7.401,4.824 3.006,6.223 3.111,20.707 3.111,24.246 0,6.008 -0.431,17.379 -3.22,23.276 -2.679,5.685 -5.681,5.685 -8.042,5.685 L 0,58.031 Z M -7.505,64.785 H 1.82 c 4.403,0 12.13,0 16.202,-10.722 2.148,-5.581 3.644,-12.555 3.644,-25.208 0,-6.445 -0.533,-21.14 -5.147,-28.968 C 12.554,-6.764 5.472,-6.764 2.79,-6.764 H -7.505 Z"
             style="fill:#a6192e;fill-opacity:1;fill-rule:nonzero;stroke:none"
             id="path38" /></g><path
           d="m 215.901,110.318 h 7.617 V 38.769 h -7.617 z"
           style="fill:#a6192e;fill-opacity:1;fill-rule:nonzero;stroke:none"
           id="path40" /><g
           id="g42"
           transform="translate(248.085,66.3398)"><path
             d="M 0,0 -2.459,17.916 C -3.657,26.717 -3.861,29.4 -4.292,34.33 -4.619,30.145 -5.471,22.424 -6.006,17.812 L -8.365,0 Z M 4.074,-27.57 0.752,-6.43 h -9.766 l -3.217,-21.14 h -6.54 L -7.618,43.979 H -0.22 L 11.265,-27.57 Z"
             style="fill:#a6192e;fill-opacity:1;fill-rule:nonzero;stroke:none"
             id="path44" /></g><g
           id="g46"
           transform="translate(286.7002,38.7695)"><path
             d="m 0,0 -11.147,37.006 c -0.756,2.369 -3.226,10.844 -4.299,15.779 0.105,-2.471 0.544,-13.623 0.544,-15.885 V 0 h -6.551 v 71.549 h 6.431 l 10.948,-38.07 c 0.75,-2.79 2.895,-9.661 4.182,-15.668 -0.317,10.191 -0.425,13.515 -0.425,15.445 V 71.549 H 6.227 L 6.227,0 Z"
             style="fill:#a6192e;fill-opacity:1;fill-rule:nonzero;stroke:none"
             id="path48" /></g><g
           id="g50"
           transform="translate(316.21,56.2598)"><path
             d="m 0,0 c 0.106,-5.789 2.358,-11.584 7.509,-11.584 6.758,0 7.505,8.688 7.505,12.869 0,9.762 -5.14,13.408 -7.719,15.233 -5.688,4.078 -12.985,9.228 -12.985,21.353 0,10.19 5.042,16.945 13.729,16.945 10.517,0 13.095,-9.546 13.632,-15.552 l -7.08,-1.18 c -0.546,3.861 -1.406,9.867 -6.865,9.867 -3.33,0 -5.904,-2.254 -5.904,-8.371 0,-5.465 2.256,-10.191 6.655,-13.408 6.43,-4.715 8.797,-6.438 11.26,-10.942 1.289,-2.355 3.104,-6.439 3.104,-12.662 0,-3.644 -0.635,-9.968 -3.75,-15.017 -3.32,-5.36 -9.111,-6 -11.796,-6 -10.298,0 -13.947,8.363 -14.377,17.373 z"
             style="fill:#2c2a29;fill-opacity:1;fill-rule:nonzero;stroke:none"
             id="path52" /></g><g
           id="g54"
           transform="translate(366.9551,38.7695)"><path
             d="m 0,0 -11.695,34.652 -2.254,-5.478 V 0 h -7.514 v 71.549 h 7.514 V 39.795 L -1.178,71.549 H 6.008 L -6.656,41.408 7.828,0 Z"
             style="fill:#2c2a29;fill-opacity:1;fill-rule:nonzero;stroke:none"
             id="path56" /></g><path
           d="m 378.432,110.318 h 7.609 V 38.769 h -7.609 z"
           style="fill:#2c2a29;fill-opacity:1;fill-rule:nonzero;stroke:none"
           id="path58" /><g
           id="g60"
           transform="translate(417.4863,77.0703)"><path
             d="m 0,0 h 2.152 c 4.067,0 5.25,0.963 5.25,12.33 0,11.809 -2.254,11.809 -5.25,11.809 H 0 Z M -10.717,-38.301 V 33.248 H 1.287 c 4.51,0 8.795,0 12.334,-4.072 3.227,-3.752 5.043,-9.217 5.043,-17.373 0,-15.774 -5.469,-21.567 -15.34,-21.567 H 0 v -28.537 z"
             style="fill:#2c2a29;fill-opacity:1;fill-rule:nonzero;stroke:none"
             id="path62" /></g><g
           id="g64"
           transform="translate(452.998,67.2012)"><path
             d="m 0,0 -1.609,12.766 c -0.426,3.429 -1.93,17.486 -2.145,19.523 -0.101,-2.037 -0.211,-3.861 -0.535,-7.191 -0.645,-6.86 -0.754,-7.61 -1.178,-12.442 L -6.867,0 Z M 3.432,-28.432 0.975,-8.691 h -8.59 l -2.25,-19.741 h -9.549 L -8.371,43.117 H 2.137 l 11.379,-71.549 z"
             style="fill:#2c2a29;fill-opacity:1;fill-rule:nonzero;stroke:none"
             id="path66" /></g><g
           id="g68"
           transform="translate(473.0645,38.7695)"><path
             d="m 0,0 v 62.439 h -7.934 v 9.11 h 26.483 v -9.11 h -7.82 V 0 Z"
             style="fill:#2c2a29;fill-opacity:1;fill-rule:nonzero;stroke:none"
             id="path70" /></g><g
           id="g72"
           transform="translate(505.7832,78.8926)"><path
             d="M 0,0 H 1.715 C 5.684,0 6.863,1.934 6.863,11.482 6.863,22.316 4.5,22.316 1.715,22.316 H 0 Z M 9.547,-40.123 2.572,-9.332 H 0 V -40.123 H -10.738 V 31.426 H 1.715 c 4.394,0 9.008,-0.635 12.33,-5.033 2.26,-3.006 4.08,-7.081 4.08,-15.559 0,-13.623 -4.18,-16.195 -6.541,-17.588 l 9.008,-33.369 z"
             style="fill:#2c2a29;fill-opacity:1;fill-rule:nonzero;stroke:none"
             id="path74" /></g><g
           id="g76"
           transform="translate(542.1504,51.1035)"><path
             d="m 0,0 c 0.424,-2.031 1.18,-4.289 3.859,-4.289 2.688,0 3.43,2.15 3.86,4.289 0.972,4.836 0.972,20.277 0.972,21.566 0,10.196 -0.113,14.7 -0.535,22.311 C 7.941,49.133 6.648,51.176 3.859,51.176 1.18,51.176 0.424,49.133 0,46.885 -0.863,42.383 -0.863,23.82 -0.863,23.389 -0.863,17.812 -0.863,4.836 0,0 m 3.859,60.074 c 11.375,0 16.313,-9 16.313,-36.685 0,-27.678 -4.938,-36.58 -16.313,-36.58 -14.476,0 -16.193,15.552 -16.193,36.58 0,20.275 1.389,36.685 16.193,36.685"
             style="fill:#2c2a29;fill-opacity:1;fill-rule:nonzero;stroke:none"
             id="path78" /></g><g
           id="g80"
           transform="translate(570.0469,38.7695)"><path
             d="M 0,0 V 71.549 H 10.725 V 9.123 H 24.139 V 0 Z"
             style="fill:#2c2a29;fill-opacity:1;fill-rule:nonzero;stroke:none"
             id="path82" /></g><g
           id="g84"
           transform="translate(387.1973,244.9272)"><path
             d="m 0,0 c 5.527,1.355 54.84,15.153 54.84,15.153 0,0 -9.473,5.355 -13.59,8.979 -4.125,3.625 -3.609,7.078 0.854,13.104 4.457,6.014 22.986,27.122 22.986,27.122 0,0 -27.957,2.653 -35.332,3.972 -7.373,1.335 -10.115,3.509 -9.596,8.963 0.518,5.464 3.74,15.851 3.74,15.851 0,0 -45.355,-23.759 -50.322,-26.57 -4.935,-2.799 -7.943,-1.177 -6.809,4.961 l 10.374,64.938 c 0,0 -8.471,-6.815 -13.356,-9.316 -4.883,-2.489 -7.914,-0.739 -11.869,5.626 -3.816,6.169 -20.058,38.818 -21.042,40.786 h -0.043 c -0.98,-1.968 -17.213,-34.617 -21.033,-40.786 -3.958,-6.365 -6.988,-8.115 -11.875,-5.626 -4.887,2.501 -13.351,9.316 -13.351,9.316 l 10.377,-64.938 c 1.126,-6.138 -1.873,-7.76 -6.825,-4.961 -4.953,2.811 -50.306,26.57 -50.306,26.57 0,0 3.221,-10.387 3.736,-15.851 0.519,-5.454 -2.222,-7.628 -9.598,-8.963 -7.372,-1.319 -35.333,-3.972 -35.333,-3.972 0,0 18.529,-21.108 22.992,-27.122 4.458,-6.026 4.969,-9.479 0.846,-13.104 -4.116,-3.624 -13.582,-8.979 -13.582,-8.979 0,0 49.302,-13.798 54.831,-15.153 5.532,-1.345 7.351,-5.907 1.583,-8.271 l -22.31,-4.886 c 0,0 5.502,-4.236 7.785,-6.889 2.282,-2.668 1.65,-4.805 -1.702,-8.215 -3.358,-3.401 -16.971,-15.084 -16.971,-15.084 0,0 17.442,-4.186 21.985,-5.678 4.546,-1.5 6.078,-3.119 5.263,-6.527 -0.812,-3.397 -3.778,-9.682 -3.778,-9.682 0,0 50.347,18.912 53.73,20.248 l 0.459,0.133 c 5.547,2.068 9.44,1.027 8.419,-5.609 l -3.446,-28.446 c 0,0 11.186,2.475 18.129,2.739 6.947,-0.264 18.134,-2.739 18.134,-2.739 l -3.451,28.446 c -1.017,6.636 2.869,7.677 8.43,5.609 l 0.445,-0.133 c 3.387,-1.336 53.734,-20.248 53.734,-20.248 0,0 -2.968,6.285 -3.777,9.682 -0.814,3.408 0.723,5.027 5.268,6.527 4.545,1.492 21.978,5.678 21.978,5.678 0,0 -13.605,11.683 -16.965,15.084 -3.349,3.41 -3.988,5.547 -1.711,8.215 2.284,2.653 7.795,6.889 7.795,6.889 L -1.576,-8.271 C -7.344,-5.907 -5.527,-1.345 0,0"
             style="fill:#a6192e;fill-opacity:1;fill-rule:nonzero;stroke:none"
             id="path86" /></g><g
           id="g88"
           transform="translate(372.125,251.2251)"><path
             d="M 0,0 H -36.145 V -36.137 H -72.283 V 0 h -36.132 v 36.144 h 36.132 v 36.134 h 36.138 V 36.144 l 36.145,0 z"
             style="fill:#ffffff;fill-opacity:1;fill-rule:nonzero;stroke:none"
             id="path90" /></g><g
           id="g92"
           transform="translate(598.9707,108.1035)"><path
             d="M 0,0 H -3.133 V 2.215 H 5.834 V 0 H 2.65 V -9.449 H 0 Z"
             style="fill:#2c2a29;fill-opacity:1;fill-rule:nonzero;stroke:none"
             id="path94" /></g><g
           id="g96"
           transform="translate(616.0098,103.1211)"><path
             d="M 0,0 C -0.051,1.402 -0.1,3.096 -0.1,4.791 H -0.15 C -0.512,3.307 -1.002,1.639 -1.453,0.275 L -2.875,-4.283 H -4.93 L -6.182,0.24 c -0.371,1.365 -0.771,3.028 -1.052,4.551 h -0.032 c -0.07,-1.574 -0.129,-3.375 -0.211,-4.83 l -0.21,-4.428 h -2.438 l 0.746,11.664 h 3.512 l 1.144,-3.89 c 0.364,-1.354 0.727,-2.805 0.993,-4.176 h 0.042 c 0.333,1.349 0.729,2.89 1.11,4.187 L -1.33,7.197 H 2.113 L 2.758,-4.467 H 0.176 Z"
             style="fill:#2c2a29;fill-opacity:1;fill-rule:nonzero;stroke:none"
             id="path98" /></g></g></g></g></svg>
