<?xml version="1.0" encoding="UTF-8" standalone="no"?>
<svg
   xmlns:dc="http://purl.org/dc/elements/1.1/"
   xmlns:cc="http://creativecommons.org/ns#"
   xmlns:rdf="http://www.w3.org/1999/02/22-rdf-syntax-ns#"
   xmlns:svg="http://www.w3.org/2000/svg"
   xmlns="http://www.w3.org/2000/svg"
   xmlns:sodipodi="http://sodipodi.sourceforge.net/DTD/sodipodi-0.dtd"
   xmlns:inkscape="http://www.inkscape.org/namespaces/inkscape"
   version="1.1"
   id="svg2"
   xml:space="preserve"
   width="888"
   height="312"
   viewBox="0 0 888 312"
   sodipodi:docname="CSP Logo text left of logo.ai"><metadata
     id="metadata8"><rdf:RDF><cc:Work
         rdf:about=""><dc:format>image/svg+xml</dc:format><dc:type
           rdf:resource="http://purl.org/dc/dcmitype/StillImage" /></cc:Work></rdf:RDF></metadata><defs
     id="defs6"><clipPath
       clipPathUnits="userSpaceOnUse"
       id="clipPath18"><path
         d="M 0,234 H 666 V 0 H 0 Z"
         id="path16" /></clipPath></defs><sodipodi:namedview
     pagecolor="#ffffff"
     bordercolor="#666666"
     borderopacity="1"
     objecttolerance="10"
     gridtolerance="10"
     guidetolerance="10"
     inkscape:pageopacity="0"
     inkscape:pageshadow="2"
     inkscape:window-width="640"
     inkscape:window-height="480"
     id="namedview4" /><g
     id="g10"
     inkscape:groupmode="layer"
     inkscape:label="CSP Logo text left of logo"
     transform="matrix(1.3333333,0,0,-1.3333333,0,312)"><g
       id="g12"><g
         id="g14"
         clip-path="url(#clipPath18)"><g
           id="g20"
           transform="translate(52.1113,82.6611)"><path
             d="m 0,0 c -0.166,-4.359 -1.664,-11.967 -9.547,-11.967 -7.598,0 -10.687,6.17 -10.687,25.793 0,17.885 2.716,25.555 10.605,25.555 8.572,0 9.463,-7.968 9.858,-12.559 l -5.188,-0.82 c -0.391,4.211 -0.678,8.262 -4.432,8.262 -3.004,0 -3.843,-2.78 -4.293,-5.041 -0.9,-4.412 -0.9,-10.135 -0.9,-15.176 0,-1.943 0,-11.568 1.053,-16.068 0.75,-3.241 1.871,-4.891 4.363,-4.891 4.127,0 4.279,5.392 4.279,7.889 z"
             style="fill:#a6192e;fill-opacity:1;fill-rule:nonzero;stroke:none"
             id="path22" /></g><g
           id="g24"
           transform="translate(65.7832,90.6904)"><path
             d="m 0,0 -1.73,12.557 c -0.813,6.177 -0.989,8.047 -1.268,11.502 -0.225,-2.927 -0.836,-8.344 -1.203,-11.573 L -5.857,0 Z M 2.863,-19.314 0.537,-4.506 H -6.32 l -2.252,-14.808 h -4.567 l 7.801,50.126 h 5.186 l 8.054,-50.126 z"
             style="fill:#a6192e;fill-opacity:1;fill-rule:nonzero;stroke:none"
             id="path26" /></g><g
           id="g28"
           transform="translate(92.8438,71.376)"><path
             d="m 0,0 -7.793,25.937 c -0.551,1.653 -2.275,7.588 -3.02,11.053 0.061,-1.728 0.372,-9.547 0.372,-11.123 V 0 h -4.598 v 50.127 h 4.516 l 7.669,-26.66 C -2.33,21.5 -0.82,16.684 0.086,12.484 -0.137,19.625 -0.223,21.953 -0.223,23.301 V 50.127 H 4.35 L 4.35,0 Z"
             style="fill:#a6192e;fill-opacity:1;fill-rule:nonzero;stroke:none"
             id="path30" /></g><g
           id="g32"
           transform="translate(114.498,90.6904)"><path
             d="m 0,0 -1.73,12.557 c -0.836,6.177 -0.979,8.047 -1.28,11.502 -0.22,-2.927 -0.824,-8.344 -1.203,-11.573 L -5.873,0 Z M 2.852,-19.314 0.535,-4.506 H -6.324 L -8.57,-19.314 h -4.588 l 7.83,50.126 h 5.164 l 8.045,-50.126 z"
             style="fill:#a6192e;fill-opacity:1;fill-rule:nonzero;stroke:none"
             id="path34" /></g><g
           id="g36"
           transform="translate(131.7832,76.1143)"><path
             d="M 0,0 H 2.322 C 5.863,0 7.227,2.717 7.52,3.379 9.623,7.746 9.711,17.887 9.711,20.373 9.711,24.582 9.396,32.549 7.449,36.679 5.566,40.68 3.459,40.68 1.818,40.68 H 0 Z m -5.252,45.389 h 6.535 c 3.082,0 8.487,0 11.342,-7.5 1.514,-3.916 2.559,-8.801 2.559,-17.666 0,-4.52 -0.368,-14.813 -3.598,-20.295 C 8.793,-4.738 3.838,-4.738 1.969,-4.738 h -7.221 z"
             style="fill:#a6192e;fill-opacity:1;fill-rule:nonzero;stroke:none"
             id="path38" /></g><path
           d="m 153.437,121.503 h 5.342 V 71.376 h -5.342 z"
           style="fill:#a6192e;fill-opacity:1;fill-rule:nonzero;stroke:none"
           id="path40" /><g
           id="g42"
           transform="translate(175.9922,90.6904)"><path
             d="m 0,0 -1.734,12.557 c -0.829,6.177 -0.971,8.047 -1.28,11.502 C -3.24,21.132 -3.826,15.715 -4.217,12.486 L -5.857,0 Z M 2.857,-19.314 0.529,-4.506 h -6.851 l -2.246,-14.808 h -4.578 l 7.802,50.126 h 5.194 l 8.029,-50.126 z"
             style="fill:#a6192e;fill-opacity:1;fill-rule:nonzero;stroke:none"
             id="path44" /></g><g
           id="g46"
           transform="translate(203.0469,71.376)"><path
             d="m 0,0 -7.816,25.937 c -0.526,1.653 -2.26,7.588 -2.998,11.053 0.085,-1.728 0.363,-9.547 0.363,-11.123 V 0 h -4.582 v 50.127 h 4.508 l 7.675,-26.66 c 0.52,-1.967 2.02,-6.783 2.932,-10.983 -0.219,7.141 -0.316,9.469 -0.316,10.817 V 50.127 H 4.379 L 4.379,0 Z"
             style="fill:#a6192e;fill-opacity:1;fill-rule:nonzero;stroke:none"
             id="path48" /></g><g
           id="g50"
           transform="translate(223.7129,83.6377)"><path
             d="m 0,0 c 0.086,-4.066 1.664,-8.123 5.262,-8.123 4.746,0 5.269,6.08 5.269,9.014 0,6.839 -3.597,9.406 -5.398,10.679 -3.996,2.866 -9.123,6.469 -9.123,14.969 0,7.135 3.549,11.865 9.633,11.865 7.377,0 9.181,-6.692 9.56,-10.886 l -4.959,-0.846 c -0.392,2.715 -0.996,6.926 -4.814,6.926 -2.336,0 -4.157,-1.579 -4.157,-5.879 0,-3.826 1.59,-7.135 4.668,-9.381 4.52,-3.299 6.182,-4.512 7.899,-7.678 0.9,-1.646 2.181,-4.51 2.181,-8.855 0,-2.563 -0.451,-6.996 -2.621,-10.539 -2.339,-3.752 -6.4,-4.209 -8.267,-4.209 -7.227,0 -9.793,5.879 -10.098,12.185 z"
             style="fill:#2c2a29;fill-opacity:1;fill-rule:nonzero;stroke:none"
             id="path52" /></g><g
           id="g54"
           transform="translate(259.2754,71.376)"><path
             d="m 0,0 -8.199,24.281 -1.582,-3.84 V 0 h -5.248 v 50.127 h 5.248 v -22.24 l 8.957,22.24 H 4.215 L -4.654,29.031 5.484,0 Z"
             style="fill:#2c2a29;fill-opacity:1;fill-rule:nonzero;stroke:none"
             id="path56" /></g><path
           d="m 267.326,121.503 h 5.33 V 71.376 h -5.33 z"
           style="fill:#2c2a29;fill-opacity:1;fill-rule:nonzero;stroke:none"
           id="path58" /><g
           id="g60"
           transform="translate(294.6914,98.2236)"><path
             d="m 0,0 h 1.496 c 2.865,0 3.682,0.668 3.682,8.631 0,8.274 -1.578,8.274 -3.682,8.274 H 0 Z m -7.52,-26.848 v 50.127 h 8.428 c 3.147,0 6.162,0 8.633,-2.845 2.264,-2.63 3.535,-6.462 3.535,-12.164 C 13.076,-2.789 9.23,-6.855 2.324,-6.855 H 0 v -19.993 z"
             style="fill:#2c2a29;fill-opacity:1;fill-rule:nonzero;stroke:none"
             id="path62" /></g><g
           id="g64"
           transform="translate(319.5742,91.2979)"><path
             d="m 0,0 -1.127,8.938 c -0.305,2.417 -1.357,12.255 -1.516,13.684 -0.062,-1.429 -0.14,-2.708 -0.363,-5.036 -0.465,-4.813 -0.537,-5.332 -0.826,-8.703 L -4.811,0 Z m 2.396,-19.922 -1.72,13.836 h -6.01 l -1.59,-13.836 h -6.678 l 7.735,50.127 h 7.369 l 7.973,-50.127 z"
             style="fill:#2c2a29;fill-opacity:1;fill-rule:nonzero;stroke:none"
             id="path66" /></g><g
           id="g68"
           transform="translate(333.625,71.376)"><path
             d="m 0,0 v 43.753 h -5.562 v 6.374 H 13 V 43.753 H 7.527 V 0 Z"
             style="fill:#2c2a29;fill-opacity:1;fill-rule:nonzero;stroke:none"
             id="path70" /></g><g
           id="g72"
           transform="translate(356.5605,99.4854)"><path
             d="m 0,0 h 1.187 c 2.788,0 3.62,1.375 3.62,8.045 0,7.599 -1.659,7.599 -3.62,7.599 H 0 Z M 6.686,-28.109 1.791,-6.529 H 0 v -21.58 h -7.533 v 50.127 h 8.72 c 3.084,0 6.311,-0.432 8.659,-3.517 1.57,-2.105 2.857,-4.962 2.857,-10.905 0,-9.547 -2.933,-11.338 -4.594,-12.317 l 6.313,-23.388 z"
             style="fill:#2c2a29;fill-opacity:1;fill-rule:nonzero;stroke:none"
             id="path74" /></g><g
           id="g76"
           transform="translate(382.0293,80.0264)"><path
             d="m 0,0 c 0.312,-1.424 0.83,-3.01 2.705,-3.01 1.891,0 2.418,1.504 2.715,3.01 0.685,3.396 0.685,14.207 0.685,15.107 0,7.135 -0.091,10.297 -0.386,15.629 C 5.561,34.422 4.66,35.855 2.705,35.855 0.83,35.855 0.312,34.422 0,32.848 -0.594,29.689 -0.594,16.682 -0.594,16.377 -0.594,12.482 -0.594,3.396 0,0 m 2.705,42.092 c 7.99,0 11.432,-6.318 11.432,-25.715 0,-19.387 -3.442,-25.617 -11.432,-25.617 -10.142,0 -11.348,10.886 -11.348,25.617 0,14.223 0.983,25.715 11.348,25.715"
             style="fill:#2c2a29;fill-opacity:1;fill-rule:nonzero;stroke:none"
             id="path78" /></g><g
           id="g80"
           transform="translate(401.5918,71.376)"><path
             d="M 0,0 V 50.127 H 7.514 V 6.393 h 9.4 V 0 Z"
             style="fill:#2c2a29;fill-opacity:1;fill-rule:nonzero;stroke:none"
             id="path82" /></g><g
           id="g84"
           transform="translate(588.7344,79.0381)"><path
             d="m 0,0 c 3.871,0.955 38.422,10.627 38.422,10.627 0,0 -6.639,3.748 -9.526,6.281 -2.882,2.539 -2.525,4.969 0.608,9.186 3.123,4.22 16.107,19.013 16.107,19.013 0,0 -19.597,1.852 -24.752,2.782 -5.17,0.929 -7.113,2.455 -6.726,6.281 0.363,3.817 2.631,11.095 2.631,11.095 0,0 -31.801,-16.636 -35.264,-18.607 -3.455,-1.962 -5.576,-0.817 -4.787,3.476 l 7.277,45.491 c 0,0 -5.931,-4.776 -9.357,-6.521 -3.422,-1.746 -5.549,-0.521 -8.315,3.931 -2.679,4.34 -14.058,27.2 -14.75,28.595 h -0.035 c -0.687,-1.395 -12.047,-24.255 -14.738,-28.595 -2.76,-4.452 -4.893,-5.677 -8.318,-3.931 -3.43,1.745 -9.358,6.521 -9.358,6.521 l 7.283,-45.491 c 0.782,-4.293 -1.302,-5.438 -4.791,-3.476 -3.463,1.971 -35.254,18.607 -35.254,18.607 0,0 2.266,-7.278 2.623,-11.095 0.377,-3.826 -1.548,-5.352 -6.712,-6.281 -5.172,-0.93 -24.762,-2.782 -24.762,-2.782 0,0 12.974,-14.793 16.109,-19.013 3.117,-4.217 3.481,-6.647 0.592,-9.186 -2.877,-2.533 -9.518,-6.281 -9.518,-6.281 0,0 34.543,-9.672 38.422,-10.627 3.866,-0.93 5.151,-4.135 1.108,-5.797 l -15.625,-3.42 c 0,0 3.842,-2.965 5.439,-4.832 1.598,-1.861 1.156,-3.346 -1.185,-5.742 -2.356,-2.398 -11.903,-10.582 -11.903,-10.582 0,0 12.239,-2.914 15.422,-3.965 3.178,-1.057 4.246,-2.191 3.674,-4.57 -0.555,-2.399 -2.639,-6.797 -2.639,-6.797 0,0 35.272,13.262 37.645,14.184 l 0.324,0.105 c 3.881,1.441 6.604,0.729 5.893,-3.949 l -2.399,-19.906 c 0,0 7.836,1.726 12.678,1.902 4.887,-0.176 12.728,-1.902 12.728,-1.902 l -2.437,19.906 c -0.697,4.678 2.018,5.39 5.91,3.949 l 0.313,-0.105 c 2.379,-0.922 37.656,-14.184 37.656,-14.184 0,0 -2.088,4.398 -2.635,6.797 -0.576,2.379 0.494,3.513 3.672,4.57 3.188,1.051 15.412,3.965 15.412,3.965 0,0 -9.535,8.184 -11.889,10.582 -2.357,2.396 -2.793,3.881 -1.193,5.742 1.6,1.867 5.455,4.832 5.455,4.832 l -15.64,3.42 C -5.143,-4.135 -3.873,-0.93 0,0"
             style="fill:#a6192e;fill-opacity:1;fill-rule:nonzero;stroke:none"
             id="path86" /></g><g
           id="g88"
           transform="translate(578.1855,83.46)"><path
             d="M 0,0 H -25.332 V -25.328 H -50.666 V 0 h -25.316 v 25.318 h 25.316 v 25.335 h 25.334 V 25.318 l 25.332,0 z"
             style="fill:#ffffff;fill-opacity:1;fill-rule:nonzero;stroke:none"
             id="path90" /></g><g
           id="g92"
           transform="translate(422.207,119.9434)"><path
             d="m 0,0 h -2.225 v 1.56 h 6.35 V 0 H 1.881 V -6.692 H 0 Z"
             style="fill:#2c2a29;fill-opacity:1;fill-rule:nonzero;stroke:none"
             id="path94" /></g><g
           id="g96"
           transform="translate(434.2676,116.418)"><path
             d="M 0,0 C -0.035,0.985 -0.07,2.191 -0.07,3.392 H -0.109 C -0.367,2.336 -0.705,1.158 -1.012,0.189 L -2.037,-3.047 H -3.49 l -0.881,3.212 c -0.275,0.96 -0.553,2.15 -0.746,3.227 H -5.141 C -5.184,2.269 -5.23,0.99 -5.283,-0.034 l -0.154,-3.133 h -1.735 l 0.531,8.252 h 2.485 l 0.81,-2.749 c 0.264,-0.958 0.524,-1.984 0.705,-2.953 h 0.024 c 0.242,0.945 0.539,2.052 0.793,2.965 l 0.873,2.737 H 1.494 L 1.951,-3.167 H 0.129 Z"
             style="fill:#2c2a29;fill-opacity:1;fill-rule:nonzero;stroke:none"
             id="path98" /></g></g></g></g></svg>
