<?xml version="1.0" encoding="UTF-8" standalone="no" ?>
<!DOCTYPE svg PUBLIC "-//W3C//DTD SVG 1.1//EN" "http://www.w3.org/Graphics/SVG/1.1/DTD/svg11.dtd">
<svg xmlns="http://www.w3.org/2000/svg" xmlns:xlink="http://www.w3.org/1999/xlink" version="1.1" width="1500" height="280" viewBox="0 0 1500 280" xml:space="preserve">
<desc>Created with Fabric.js 4.6.0</desc>
<defs>
</defs>
<g transform="matrix(2.96 0 0 -2.96 328.75 140.12)" id="T7VEkZ9dRH7uGSN3trzGY" clip-path="url(#CLIPPATH_189)"  >
<clipPath id="CLIPPATH_189" >
	<path transform="matrix(1 0 0 1 87.85 18.73) translate(-333, -117)" id="path16" d="M 0 234 L 666 234 L 666 0 L 0 0 Z" stroke-linecap="round" />
</clipPath>
<path style="stroke: none; stroke-width: 1; stroke-dasharray: none; stroke-linecap: butt; stroke-dashoffset: 0; stroke-linejoin: miter; stroke-miterlimit: 4; fill: rgb(166,25,46); fill-rule: nonzero; opacity: 1;" vector-effect="non-scaling-stroke"  transform=" translate(9.99, -13.7)" d="M 0 0 C -0.16 -4.355 -1.662 -11.969 -9.549 -11.969 C -17.139 -11.969 -20.227 -5.797 -20.227 13.820000000000002 C -20.227 31.709000000000003 -17.516000000000002 39.373000000000005 -9.625 39.373000000000005 C -1.0410000000000004 39.373000000000005 -0.16000000000000014 31.405000000000005 0.23799999999999955 26.809000000000005 L -4.961 25.998000000000005 C -5.344 30.206000000000003 -5.641 34.262 -9.396 34.262 C -12.396 34.262 -13.223 31.473 -13.668000000000001 29.219 C -14.578000000000001 24.801000000000002 -14.578000000000001 19.086000000000002 -14.578000000000001 14.043000000000001 C -14.578000000000001 12.090000000000002 -14.578000000000001 2.4730000000000008 -13.529000000000002 -2.028999999999998 C -12.773000000000001 -5.269999999999998 -11.650000000000002 -6.917999999999998 -9.152000000000001 -6.917999999999998 C -5.025000000000001 -6.917999999999998 -4.889000000000001 -1.5229999999999988 -4.889000000000001 0.9650000000000016 z" stroke-linecap="round" />
</g>
<g transform="matrix(2.96 0 0 -2.96 391.32 139.9)" id="jGRrbTwicJm-7kSzLrBPx" clip-path="url(#CLIPPATH_190)"  >
<clipPath id="CLIPPATH_190" >
	<path transform="matrix(1 0 0 1 66.8 18.66) translate(-333, -117)" id="path16" d="M 0 234 L 666 234 L 666 0 L 0 0 Z" stroke-linecap="round" />
</clipPath>
<path style="stroke: none; stroke-width: 1; stroke-dasharray: none; stroke-linecap: butt; stroke-dashoffset: 0; stroke-linejoin: miter; stroke-miterlimit: 4; fill: rgb(166,25,46); fill-rule: nonzero; opacity: 1;" vector-effect="non-scaling-stroke"  transform=" translate(2.62, -5.75)" d="M 0 0 L -1.727 12.555 C -2.539 18.73 -2.711 20.604 -3.002 24.062 C -3.219 21.126 -3.83 15.723 -4.197 12.492 L -5.859 0 Z M 2.865 -19.309 L 0.541 -4.5 L -6.311999999999999 -4.5 L -8.562999999999999 -19.308999999999997 L -13.142999999999999 -19.308999999999997 L -5.3359999999999985 30.817 L -0.1429999999999989 30.817 L 7.904000000000002 -19.308999999999997 z" stroke-linecap="round" />
</g>
<g transform="matrix(2.96 0 0 -2.96 463.64 139.9)" id="v9xCgf_SjywQZSdTi9trz" clip-path="url(#CLIPPATH_191)"  >
<clipPath id="CLIPPATH_191" >
	<path transform="matrix(1 0 0 1 42.46 18.66) translate(-333, -117)" id="path16" d="M 0 234 L 666 234 L 666 0 L 0 0 Z" stroke-linecap="round" />
</clipPath>
<path style="stroke: none; stroke-width: 1; stroke-dasharray: none; stroke-linecap: butt; stroke-dashoffset: 0; stroke-linejoin: miter; stroke-miterlimit: 4; fill: rgb(166,25,46); fill-rule: nonzero; opacity: 1;" vector-effect="non-scaling-stroke"  transform=" translate(5.34, -25.06)" d="M 0 0 L -7.791 25.934 C -8.334 27.582 -10.072000000000001 33.521 -10.811 36.986000000000004 C -10.748 35.25000000000001 -10.439 27.437000000000005 -10.439 25.859 L -10.439 0 L -15.033000000000001 0 L -15.033000000000001 50.126 L -10.518 50.126 L -2.8520000000000003 23.464999999999996 C -2.3240000000000003 21.499999999999996 -0.8140000000000005 16.677999999999997 0.08799999999999963 12.483999999999996 C -0.13300000000000037 19.616999999999997 -0.22100000000000036 21.946999999999996 -0.22100000000000036 23.296999999999997 L -0.22100000000000036 50.126 L 4.354 50.126 L 4.354 0 Z" stroke-linecap="round" />
</g>
<g transform="matrix(2.96 0 0 -2.96 536.06 139.9)" id="yP9z4sC3XSDMkk8TP3fUn" clip-path="url(#CLIPPATH_192)"  >
<clipPath id="CLIPPATH_192" >
	<path transform="matrix(1 0 0 1 18.09 18.66) translate(-333, -117)" id="path16" d="M 0 234 L 666 234 L 666 0 L 0 0 Z" stroke-linecap="round" />
</clipPath>
<path style="stroke: none; stroke-width: 1; stroke-dasharray: none; stroke-linecap: butt; stroke-dashoffset: 0; stroke-linejoin: miter; stroke-miterlimit: 4; fill: rgb(166,25,46); fill-rule: nonzero; opacity: 1;" vector-effect="non-scaling-stroke"  transform=" translate(2.63, -5.75)" d="M 0 0 L -1.736 12.555 C -2.568 18.73 -2.711 20.604 -3.01 24.062 C -3.225 21.126 -3.832 15.723 -4.217 12.492 L -5.871 0 Z M 2.85 -19.309 L 0.535 -4.5 L -6.326 -4.5 L -8.568 -19.308999999999997 L -13.145 -19.308999999999997 L -5.334 30.817 L -0.1719999999999997 30.817 L 7.881000000000001 -19.308999999999997 z" stroke-linecap="round" />
</g>
<g transform="matrix(2.96 0 0 -2.96 610.01 139.9)" id="cwfLbnr9InNwybWJxTj_9" clip-path="url(#CLIPPATH_193)"  >
<clipPath id="CLIPPATH_193" >
	<path transform="matrix(1 0 0 1 -6.79 18.66) translate(-333, -117)" id="path16" d="M 0 234 L 666 234 L 666 0 L 0 0 Z" stroke-linecap="round" />
</clipPath>
<path style="stroke: none; stroke-width: 1; stroke-dasharray: none; stroke-linecap: butt; stroke-dashoffset: 0; stroke-linejoin: miter; stroke-miterlimit: 4; fill: rgb(166,25,46); fill-rule: nonzero; opacity: 1;" vector-effect="non-scaling-stroke"  transform=" translate(-4.97, -20.33)" d="M 0 0 L 2.324 0 C 5.871 0 7.229 2.727 7.5249999999999995 3.379 C 9.623 7.754 9.716999999999999 17.896 9.716999999999999 20.375 C 9.716999999999999 24.578 9.411999999999999 32.553 7.462999999999999 36.69 C 5.569999999999999 40.675 3.466999999999999 40.675 1.8219999999999992 40.675 L 0 40.675 Z M -5.251 45.396 L 1.2889999999999997 45.396 C 4.3709999999999996 45.396 9.781 45.396 12.639 37.881 C 14.141 33.977000000000004 15.193 29.09 15.193 20.223 C 15.193 15.706999999999999 14.826 5.417999999999999 11.591999999999999 -0.06800000000000139 C 8.797 -4.73 3.846 -4.73 1.963 -4.73 L -5.251 -4.73 z" stroke-linecap="round" />
</g>
<g transform="matrix(2.96 0 0 -2.96 667.53 139.9)" id="bBg2DqY_FW9db32-7c9HR" clip-path="url(#CLIPPATH_194)"  >
<clipPath id="CLIPPATH_194" >
	<path transform="matrix(1 0 0 1 -26.15 18.66) translate(-333, -117)" id="path16" d="M 0 234 L 666 234 L 666 0 L 0 0 Z" stroke-linecap="round" />
</clipPath>
<path style="stroke: none; stroke-width: 1; stroke-dasharray: none; stroke-linecap: butt; stroke-dashoffset: 0; stroke-linejoin: miter; stroke-miterlimit: 4; fill: rgb(166,25,46); fill-rule: nonzero; opacity: 1;" vector-effect="non-scaling-stroke"  transform=" translate(-359.15, -98.34)" d="M 356.48 123.405 L 361.822 123.405 L 361.822 73.279 L 356.48 73.279 z" stroke-linecap="round" />
</g>
<g transform="matrix(2.96 0 0 -2.96 718.78 139.9)" id="Hi7iNrTAiyt_ofwB1asJN" clip-path="url(#CLIPPATH_195)"  >
<clipPath id="CLIPPATH_195" >
	<path transform="matrix(1 0 0 1 -43.4 18.66) translate(-333, -117)" id="path16" d="M 0 234 L 666 234 L 666 0 L 0 0 Z" stroke-linecap="round" />
</clipPath>
<path style="stroke: none; stroke-width: 1; stroke-dasharray: none; stroke-linecap: butt; stroke-dashoffset: 0; stroke-linejoin: miter; stroke-miterlimit: 4; fill: rgb(166,25,46); fill-rule: nonzero; opacity: 1;" vector-effect="non-scaling-stroke"  transform=" translate(2.64, -5.75)" d="M 0 0 L -1.732 12.555 C -2.566 18.73 -2.711 20.604 -3.018 24.061999999999998 C -3.246 21.125999999999998 -3.8339999999999996 15.722999999999997 -4.231999999999999 12.491999999999997 L -5.857 0 Z M 2.844 -19.309 L 0.518 -4.5 L -6.332 -4.5 L -8.574 -19.308999999999997 L -13.155999999999999 -19.308999999999997 L -5.353999999999999 30.817 L -0.15399999999999903 30.817 L 7.871000000000001 -19.308999999999997 z" stroke-linecap="round" />
</g>
<g transform="matrix(2.96 0 0 -2.96 791.19 139.9)" id="GfDfHThX7Iux-XcfTihag" clip-path="url(#CLIPPATH_196)"  >
<clipPath id="CLIPPATH_196" >
	<path transform="matrix(1 0 0 1 -67.76 18.66) translate(-333, -117)" id="path16" d="M 0 234 L 666 234 L 666 0 L 0 0 Z" stroke-linecap="round" />
</clipPath>
<path style="stroke: none; stroke-width: 1; stroke-dasharray: none; stroke-linecap: butt; stroke-dashoffset: 0; stroke-linejoin: miter; stroke-miterlimit: 4; fill: rgb(166,25,46); fill-rule: nonzero; opacity: 1;" vector-effect="non-scaling-stroke"  transform=" translate(5.32, -25.06)" d="M 0 0 L -7.809 25.934 C -8.34 27.582 -10.063 33.521 -10.807 36.986000000000004 C -10.721 35.25000000000001 -10.439 27.437000000000005 -10.439 25.859 L -10.439 0 L -15.025 0 L -15.025 50.126 L -10.52 50.126 L -2.8439999999999994 23.464999999999996 C -2.3279999999999994 21.499999999999996 -0.8199999999999994 16.677999999999997 0.08600000000000074 12.483999999999996 C -0.13499999999999926 19.616999999999997 -0.22899999999999926 21.946999999999996 -0.22899999999999926 23.296999999999997 L -0.22899999999999926 50.126 L 4.381000000000001 50.126 L 4.381 0 Z" stroke-linecap="round" />
</g>
<g transform="matrix(2.96 0 0 -2.96 884.85 140.12)" id="iL7EL6XilILiEBCdj8-fA" clip-path="url(#CLIPPATH_197)"  >
<clipPath id="CLIPPATH_197" >
	<path transform="matrix(1 0 0 1 -99.28 18.73) translate(-333, -117)" id="path16" d="M 0 234 L 666 234 L 666 0 L 0 0 Z" stroke-linecap="round" />
</clipPath>
<path style="stroke: none; stroke-width: 1; stroke-dasharray: none; stroke-linecap: butt; stroke-dashoffset: 0; stroke-linejoin: miter; stroke-miterlimit: 4; fill: rgb(255,252,251); fill-rule: nonzero; opacity: 1;" vector-effect="non-scaling-stroke"  transform=" translate(-5.52, -12.74)" d="M 0 0 C 0.082 -4.061 1.658 -8.109 5.262 -8.109 C 10.006 -8.109 10.523 -2.037 10.523 0.9000000000000004 C 10.523 7.736000000000001 6.917999999999999 10.297 5.114999999999999 11.578000000000001 C 1.1329999999999991 14.439000000000002 -3.9880000000000004 18.035 -3.9880000000000004 26.543 C -3.9880000000000004 33.681 -0.4550000000000005 38.408 5.639 38.408 C 13.002 38.408 14.814 31.722 15.203 27.517000000000003 L 10.234 26.678 C 9.855 29.398 9.242 33.6 5.41 33.6 C 3.0780000000000003 33.6 1.2750000000000004 32.026 1.2750000000000004 27.729 C 1.2750000000000004 23.902 2.8550000000000004 20.586 5.936 18.348 C 10.447 15.046999999999999 12.111 13.829999999999998 13.836 10.668 C 14.734 9.023 16.01 6.151999999999999 16.01 1.8069999999999986 C 16.01 -0.7500000000000013 15.553 -5.176000000000001 13.395000000000001 -8.729000000000001 C 11.051000000000002 -12.477 6.9860000000000015 -12.934000000000001 5.115000000000002 -12.934000000000001 C -2.0939999999999976 -12.934000000000001 -4.663999999999998 -7.066000000000001 -4.970999999999998 -0.7500000000000018 z" stroke-linecap="round" />
</g>
<g transform="matrix(2.96 0 0 -2.96 959.94 139.9)" id="7hyBJ7YiNnFATQ9k4juYi" clip-path="url(#CLIPPATH_198)"  >
<clipPath id="CLIPPATH_198" >
	<path transform="matrix(1 0 0 1 -124.54 18.66) translate(-333, -117)" id="path16" d="M 0 234 L 666 234 L 666 0 L 0 0 Z" stroke-linecap="round" />
</clipPath>
<path style="stroke: none; stroke-width: 1; stroke-dasharray: none; stroke-linecap: butt; stroke-dashoffset: 0; stroke-linejoin: miter; stroke-miterlimit: 4; fill: rgb(255,252,251); fill-rule: nonzero; opacity: 1;" vector-effect="non-scaling-stroke"  transform=" translate(4.77, -25.06)" d="M 0 0 L -8.186 24.277 L -9.773 20.437 L -9.773 0 L -15.02 0 L -15.02 50.126 L -9.773 50.126 L -9.773 27.883 L -0.815999999999999 50.126 L 4.217 50.126 L -4.65 29.02 L 5.482 0 Z" stroke-linecap="round" />
</g>
<g transform="matrix(2.96 0 0 -2.96 1005.96 139.9)" id="6eVhFb0jzV27be-_C14Nm" clip-path="url(#CLIPPATH_199)"  >
<clipPath id="CLIPPATH_199" >
	<path transform="matrix(1 0 0 1 -140.03 18.66) translate(-333, -117)" id="path16" d="M 0 234 L 666 234 L 666 0 L 0 0 Z" stroke-linecap="round" />
</clipPath>
<path style="stroke: none; stroke-width: 1; stroke-dasharray: none; stroke-linecap: butt; stroke-dashoffset: 0; stroke-linejoin: miter; stroke-miterlimit: 4; fill: rgb(255,252,251); fill-rule: nonzero; opacity: 1;" vector-effect="non-scaling-stroke"  transform=" translate(-473.03, -98.34)" d="M 470.371 123.405 L 475.697 123.405 L 475.697 73.279 L 470.371 73.279 z" stroke-linecap="round" />
</g>
<g transform="matrix(2.96 0 0 -2.96 1087.63 139.9)" id="ue7oh759vs8o-1-Q680iv" clip-path="url(#CLIPPATH_200)"  >
<clipPath id="CLIPPATH_200" >
	<path transform="matrix(1 0 0 1 -167.51 18.66) translate(-333, -117)" id="path16" d="M 0 234 L 666 234 L 666 0 L 0 0 Z" stroke-linecap="round" />
</clipPath>
<path style="stroke: none; stroke-width: 1; stroke-dasharray: none; stroke-linecap: butt; stroke-dashoffset: 0; stroke-linejoin: miter; stroke-miterlimit: 4; fill: rgb(255,252,251); fill-rule: nonzero; opacity: 1;" vector-effect="non-scaling-stroke"  transform=" translate(-2.78, 1.77)" d="M 0 0 L 1.494 0 C 4.355 0 5.18 0.676 5.18 8.639 C 5.18 16.915 3.598 16.915 1.4939999999999998 16.915 L 0 16.915 Z M -7.521 -26.836 L -7.521 23.29 L 0.9 23.29 C 4.055 23.29 7.064 23.29 9.545 20.436 C 11.795 17.812 13.074 13.983 13.074 8.27 C 13.074 -2.7810000000000006 9.236 -6.85 2.3260000000000005 -6.85 L 0 -6.85 L 0 -26.836 z" stroke-linecap="round" />
</g>
<g transform="matrix(2.96 0 0 -2.96 1147.16 139.9)" id="3OCgQMxtNe0qqbC8P46AY" clip-path="url(#CLIPPATH_201)"  >
<clipPath id="CLIPPATH_201" >
	<path transform="matrix(1 0 0 1 -187.55 18.66) translate(-333, -117)" id="path16" d="M 0 234 L 666 234 L 666 0 L 0 0 Z" stroke-linecap="round" />
</clipPath>
<path style="stroke: none; stroke-width: 1; stroke-dasharray: none; stroke-linecap: butt; stroke-dashoffset: 0; stroke-linejoin: miter; stroke-miterlimit: 4; fill: rgb(255,252,251); fill-rule: nonzero; opacity: 1;" vector-effect="non-scaling-stroke"  transform=" translate(2.08, -5.14)" d="M 0 0 L -1.133 8.934 C -1.432 11.347999999999999 -2.482 21.192 -2.641 22.618 C -2.707 21.192 -2.795 19.912999999999997 -3.012 17.587999999999997 C -3.473 12.772999999999996 -3.541 12.245999999999999 -3.838 8.870999999999997 L -4.818 0 Z M 2.381 -19.922 L 0.682 -6.086 L -5.34 -6.086 L -6.934 -19.922 L -13.609 -19.922 L -5.873 30.203999999999997 L 1.5 30.203999999999997 L 9.459 -19.922 z" stroke-linecap="round" />
</g>
<g transform="matrix(2.96 0 0 -2.96 1206.11 139.9)" id="UMmvm1nwVEQzBW_MY0NcO" clip-path="url(#CLIPPATH_202)"  >
<clipPath id="CLIPPATH_202" >
	<path transform="matrix(1 0 0 1 -207.38 18.66) translate(-333, -117)" id="path16" d="M 0 234 L 666 234 L 666 0 L 0 0 Z" stroke-linecap="round" />
</clipPath>
<path style="stroke: none; stroke-width: 1; stroke-dasharray: none; stroke-linecap: butt; stroke-dashoffset: 0; stroke-linejoin: miter; stroke-miterlimit: 4; fill: rgb(255,252,251); fill-rule: nonzero; opacity: 1;" vector-effect="non-scaling-stroke"  transform=" translate(-3.72, -25.06)" d="M 0 0 L 0 43.751 L -5.559 43.751 L -5.559 50.126 L 12.994 50.126 L 12.994 43.751 L 7.523 43.751 L 7.523 0 Z" stroke-linecap="round" />
</g>
<g transform="matrix(2.96 0 0 -2.96 1273.47 139.9)" id="1PIIMNCh9bjDvU79H4-5X" clip-path="url(#CLIPPATH_203)"  >
<clipPath id="CLIPPATH_203" >
	<path transform="matrix(1 0 0 1 -230.04 18.66) translate(-333, -117)" id="path16" d="M 0 234 L 666 234 L 666 0 L 0 0 Z" stroke-linecap="round" />
</clipPath>
<path style="stroke: none; stroke-width: 1; stroke-dasharray: none; stroke-linecap: butt; stroke-dashoffset: 0; stroke-linejoin: miter; stroke-miterlimit: 4; fill: rgb(255,252,251); fill-rule: nonzero; opacity: 1;" vector-effect="non-scaling-stroke"  transform=" translate(-3.44, 3.05)" d="M 0 0 L 1.195 0 C 3.9770000000000003 0 4.807 1.367 4.807 8.043 C 4.807 15.642 3.152 15.642 1.1950000000000003 15.642 L 0 15.642 Z M 6.68 -28.109 L 1.789 -6.535 L 0 -6.535 L 0 -28.109 L -7.527 -28.109 L -7.527 22.016999999999996 L 1.1949999999999994 22.016999999999996 C 4.270999999999999 22.016999999999996 7.499999999999999 21.574999999999996 9.847999999999999 18.490999999999996 C 11.418 16.388999999999996 12.703 13.538999999999996 12.703 7.589999999999996 C 12.703 -1.9490000000000034 9.766 -3.754000000000003 8.104 -4.7340000000000035 L 14.411999999999999 -28.109 z" stroke-linecap="round" />
</g>
<g transform="matrix(2.96 0 0 -2.96 1347.08 139.87)" id="oZifJNljzA_2ILZVQ_k3B" clip-path="url(#CLIPPATH_204)"  >
<clipPath id="CLIPPATH_204" >
	<path transform="matrix(1 0 0 1 -254.82 18.65) translate(-333, -117)" id="path16" d="M 0 234 L 666 234 L 666 0 L 0 0 Z" stroke-linecap="round" />
</clipPath>
<path style="stroke: none; stroke-width: 1; stroke-dasharray: none; stroke-linecap: butt; stroke-dashoffset: 0; stroke-linejoin: miter; stroke-miterlimit: 4; fill: rgb(255,252,251); fill-rule: nonzero; opacity: 1;" vector-effect="non-scaling-stroke"  transform=" translate(-2.75, -16.43)" d="M 0 0 C 0.312 -1.418 0.84 -3.004 2.707 -3.004 C 4.59 -3.004 5.122999999999999 -1.498 5.417999999999999 0 C 6.106999999999999 3.396 6.106999999999999 14.215 6.106999999999999 15.109 C 6.106999999999999 22.246 6.012 25.41 5.726999999999999 30.75 C 5.561 34.421 4.66 35.857 2.707 35.857 C 0.84 35.857 0.312 34.421 0 32.851 C -0.598 29.691 -0.598 16.687 -0.598 16.387 C -0.598 12.477 -0.598 3.396 0 0 M 2.707 42.096 C 10.693 42.096 14.135000000000002 35.773999999999994 14.135000000000002 16.386999999999997 C 14.135000000000002 -3.0040000000000013 10.693000000000001 -9.240000000000002 2.7070000000000007 -9.240000000000002 C -7.436 -9.240000000000002 -8.639 1.6559999999999988 -8.639 16.386999999999997 C -8.639 30.608999999999995 -7.669999999999999 42.096 2.7070000000000007 42.096" stroke-linecap="round" />
</g>
<g transform="matrix(2.96 0 0 -2.96 1422.17 139.9)" id="UFsDJMqV_W7E2IqW99GdK" clip-path="url(#CLIPPATH_205)"  >
<clipPath id="CLIPPATH_205" >
	<path transform="matrix(1 0 0 1 -280.09 18.66) translate(-333, -117)" id="path16" d="M 0 234 L 666 234 L 666 0 L 0 0 Z" stroke-linecap="round" />
</clipPath>
<path style="stroke: none; stroke-width: 1; stroke-dasharray: none; stroke-linecap: butt; stroke-dashoffset: 0; stroke-linejoin: miter; stroke-miterlimit: 4; fill: rgb(255,252,251); fill-rule: nonzero; opacity: 1;" vector-effect="non-scaling-stroke"  transform=" translate(-8.46, -25.06)" d="M 0 0 L 0 50.126 L 7.516 50.126 L 7.516 6.383 L 16.916 6.383 L 16.916 0 Z" stroke-linecap="round" />
</g>
<g transform="matrix(1.47 0 0 -1.47 139.33 131.12)" id="mKkYGT7vbjZmJpxizWwCX" clip-path="url(#CLIPPATH_206)"  >
<clipPath id="CLIPPATH_206" >
	<path transform="matrix(1 0 0 1 209.7 2.88) translate(-333, -117)" id="path16" d="M 0 234 L 666 234 L 666 0 L 0 0 Z" stroke-linecap="round" />
</clipPath>
<path style="stroke: none; stroke-width: 1; stroke-dasharray: none; stroke-linecap: butt; stroke-dashoffset: 0; stroke-linejoin: miter; stroke-miterlimit: 4; fill: rgb(166,25,46); fill-rule: nonzero; opacity: 1;" vector-effect="non-scaling-stroke"  transform=" translate(48.44, -33.18)" d="M 0 0 C 3.873 0.953 38.424 10.625 38.424 10.625 C 38.424 10.625 31.779 14.365 28.889 16.916 C 26.02 19.445 26.372999999999998 21.883 29.503999999999998 26.094 C 32.629 30.312 45.611 45.097 45.611 45.097 C 45.611 45.097 26.019999999999996 46.958 20.853999999999996 47.886 C 15.685999999999996 48.817 13.747999999999996 50.339000000000006 14.134999999999994 54.163000000000004 C 14.491999999999994 57.989000000000004 16.755999999999993 65.262 16.755999999999993 65.262 C 16.755999999999993 65.262 -15.035000000000007 48.629000000000005 -18.50200000000001 46.658 C -21.96500000000001 44.697 -24.076000000000008 45.838 -23.27500000000001 50.133 L -16.006000000000007 95.62700000000001 C -16.006000000000007 95.62700000000001 -21.941000000000006 90.83900000000001 -25.36500000000001 89.10700000000001 C -28.78900000000001 87.35600000000001 -30.91400000000001 88.58100000000002 -33.68900000000001 93.03400000000002 C -36.36500000000001 97.36900000000001 -47.74000000000001 120.23600000000002 -48.43200000000001 121.62700000000002 L -48.46500000000001 121.62700000000002 C -49.15400000000001 120.23600000000002 -60.52000000000001 97.36900000000003 -63.20500000000001 93.03400000000002 C -65.95900000000002 88.58100000000002 -68.08800000000001 87.35600000000002 -71.52100000000002 89.10700000000001 C -74.94300000000001 90.83900000000001 -80.87500000000001 95.62700000000001 -80.87500000000001 95.62700000000001 L -73.59800000000001 50.13300000000001 C -72.80700000000002 45.83800000000001 -74.90600000000002 44.69700000000001 -78.38900000000001 46.65800000000001 C -81.852 48.629000000000005 -113.64500000000001 65.262 -113.64500000000001 65.262 C -113.64500000000001 65.262 -111.38300000000001 57.989000000000004 -111.02700000000002 54.163 C -110.64100000000002 50.339 -112.56600000000002 48.81699999999999 -117.73600000000002 47.885999999999996 C -122.90200000000002 46.958 -142.496 45.096999999999994 -142.496 45.096999999999994 C -142.496 45.096999999999994 -129.51600000000002 30.311999999999994 -126.385 26.093999999999994 C -123.27000000000001 21.882999999999996 -122.902 19.444999999999993 -125.789 16.915999999999993 C -128.678 14.364999999999993 -135.316 10.624999999999993 -135.316 10.624999999999993 C -135.316 10.624999999999993 -100.76400000000001 0.9529999999999923 -96.891 -7.105427357601002e-15 C -93.016 -0.9340000000000072 -91.736 -4.139000000000007 -95.787 -5.795000000000007 L -111.41600000000001 -9.225000000000007 C -111.41600000000001 -9.225000000000007 -107.56300000000002 -12.188000000000006 -105.96100000000001 -14.055000000000007 C -104.36100000000002 -15.906000000000006 -104.80700000000002 -17.398000000000007 -107.156 -19.80100000000001 C -109.506 -22.189000000000007 -119.05900000000001 -30.375000000000007 -119.05900000000001 -30.375000000000007 C -119.05900000000001 -30.375000000000007 -106.82200000000002 -33.297000000000004 -103.64300000000001 -34.34400000000001 C -100.43900000000002 -35.40400000000001 -99.39300000000001 -36.53500000000001 -99.96300000000001 -38.91600000000001 C -100.50600000000001 -41.31300000000001 -102.59400000000001 -45.70700000000001 -102.59400000000001 -45.70700000000001 C -102.59400000000001 -45.70700000000001 -67.32600000000001 -32.44900000000001 -64.959 -31.525000000000006 L -64.629 -31.418000000000006 C -60.75600000000001 -29.977000000000007 -58.02 -30.699000000000005 -58.742000000000004 -35.36300000000001 L -61.143 -55.275000000000006 C -61.143 -55.275000000000006 -53.293 -53.54900000000001 -48.449 -53.37100000000001 C -43.586 -53.54900000000001 -35.729 -55.275000000000006 -35.729 -55.275000000000006 L -38.164 -35.36300000000001 C -38.871 -30.699000000000005 -36.139 -29.977000000000007 -32.266000000000005 -31.418000000000006 L -31.941000000000006 -31.525000000000006 C -29.561000000000007 -32.449000000000005 5.702999999999992 -45.70700000000001 5.702999999999992 -45.70700000000001 C 5.702999999999992 -45.70700000000001 3.6269999999999922 -41.31300000000001 3.0759999999999925 -38.91600000000001 C 2.4999999999999925 -36.53500000000001 3.5719999999999925 -35.40400000000001 6.747999999999992 -34.34400000000001 C 9.940999999999992 -33.29700000000001 22.159999999999993 -30.375000000000007 22.159999999999993 -30.375000000000007 C 22.159999999999993 -30.375000000000007 12.620999999999993 -22.189000000000007 10.274999999999993 -19.80100000000001 C 7.919999999999993 -17.39800000000001 7.476999999999993 -15.90600000000001 9.075999999999993 -14.055000000000009 C 10.681999999999993 -12.18800000000001 14.530999999999993 -9.225000000000009 14.530999999999993 -9.225000000000009 L -1.1 -5.795 C -5.135 -4.139 -3.875 -0.934 0 0" stroke-linecap="round" />
</g>
<g transform="matrix(1.47 0 0 -1.47 139.18 154.78)" id="aYVG3HxBRRd7iC5wvFcT6" clip-path="url(#CLIPPATH_207)"  >
<clipPath id="CLIPPATH_207" >
	<path transform="matrix(1 0 0 1 209.8 18.98) translate(-333, -117)" id="path16" d="M 0 234 L 666 234 L 666 0 L 0 0 Z" stroke-linecap="round" />
</clipPath>
<path style="stroke: none; stroke-width: 1; stroke-dasharray: none; stroke-linecap: butt; stroke-dashoffset: 0; stroke-linejoin: miter; stroke-miterlimit: 4; fill: rgb(255,255,255); fill-rule: nonzero; opacity: 1;" vector-effect="non-scaling-stroke"  transform=" translate(37.99, -12.66)" d="M 0 0 L -25.324 0 L -25.324 -25.324 L -50.652 -25.324 L -50.652 0 L -75.975 0 L -75.975 25.322 L -50.651999999999994 25.322 L -50.651999999999994 50.647999999999996 L -25.323999999999995 50.647999999999996 L -25.323999999999995 25.322 L 7.105427357601002e-15 25.322 z" stroke-linecap="round" />
</g>
<g transform="matrix(2.96 0 0 -2.96 1461.13 77.69)" id="tfg1eR8Ai2OC26owpa6Qt" clip-path="url(#CLIPPATH_208)"  >
<clipPath id="CLIPPATH_208" >
	<path transform="matrix(1 0 0 1 -293.2 -2.28) translate(-333, -117)" id="path16" d="M 0 234 L 666 234 L 666 0 L 0 0 Z" stroke-linecap="round" />
</clipPath>
<path style="stroke: none; stroke-width: 1; stroke-dasharray: none; stroke-linecap: butt; stroke-dashoffset: 0; stroke-linejoin: miter; stroke-miterlimit: 4; fill: rgb(255,252,251); fill-rule: nonzero; opacity: 1;" vector-effect="non-scaling-stroke"  transform=" translate(-0.95, 2.56)" d="M 0 0 L -2.23 0 L -2.23 1.568 L 4.123 1.568 L 4.123 0 L 1.875 0 L 1.875 -6.691 L 0 -6.691 Z" stroke-linecap="round" />
</g>
<g transform="matrix(2.96 0 0 -2.96 1486.39 77.69)" id="rDaCLnQf6q2HgR3JZ9PZy" clip-path="url(#CLIPPATH_209)"  >
<clipPath id="CLIPPATH_209" >
	<path transform="matrix(1 0 0 1 -301.7 -2.28) translate(-333, -117)" id="path16" d="M 0 234 L 666 234 L 666 0 L 0 0 Z" stroke-linecap="round" />
</clipPath>
<path style="stroke: none; stroke-width: 1; stroke-dasharray: none; stroke-linecap: butt; stroke-dashoffset: 0; stroke-linejoin: miter; stroke-miterlimit: 4; fill: rgb(255,252,251); fill-rule: nonzero; opacity: 1;" vector-effect="non-scaling-stroke"  transform=" translate(2.62, -0.96)" d="M 0 0 C -0.039 0.984 -0.072 2.184 -0.072 3.392 L -0.107 3.392 C -0.369 2.336 -0.715 1.153 -1.018 0.187 L -2.041 -3.041 L -3.5 -3.041 L -4.375 0.16 C -4.652 1.129 -4.932 2.316 -5.133 3.392 L -5.152 3.392 C -5.187 2.267 -5.23 0.99 -5.291 -0.034 L -5.455 -3.1719999999999997 L -7.182 -3.1719999999999997 L -6.646000000000001 5.088 L -4.168000000000001 5.088 L -3.354000000000001 2.3360000000000003 C -3.096000000000001 1.3780000000000003 -2.828000000000001 0.3530000000000002 -2.656000000000001 -0.6229999999999998 L -2.627000000000001 -0.6229999999999998 C -2.383000000000001 0.3240000000000002 -2.094000000000001 1.4300000000000002 -1.8280000000000012 2.35 L -0.9550000000000012 5.088 L 1.4959999999999989 5.088 L 1.944999999999999 -3.1719999999999997 L 0.12499999999999889 -3.1719999999999997 z" stroke-linecap="round" />
</g>
</svg>